<?xml version="1.0" encoding="utf-8"?>
<!-- Generator: Adobe Illustrator 26.0.2, SVG Export Plug-In . SVG Version: 6.00 Build 0)  -->
<svg version="1.1" id="Layer_1" xmlns="http://www.w3.org/2000/svg" xmlns:xlink="http://www.w3.org/1999/xlink" x="0px" y="0px"
	 viewBox="0 0 40 40" style="enable-background:new 0 0 40 40;" xml:space="preserve">
<style type="text/css">
	.st0{fill-rule:evenodd;clip-rule:evenodd;}
</style>
<path class="st0" d="M19.6,37.2C9.9,37.2,2,29.3,2,19.6S9.9,2,19.6,2s17.6,7.9,17.6,17.6S29.3,37.2,19.6,37.2z M19.6,2.8
	c-9.3,0-16.8,7.6-16.8,16.8s7.6,16.8,16.8,16.8s16.8-7.6,16.8-16.8S28.9,2.8,19.6,2.8z M18.5,26.9c-0.1,0-0.2,0-0.3-0.1l-6.9-6.9
	c-0.2-0.2-0.2-0.4,0-0.6l6.9-6.9c0.1-0.1,0.2-0.1,0.3-0.1c0.1,0,0.2,0,0.3,0.1c0.2,0.2,0.2,0.4,0,0.6l-6.2,6.2h15.1
	c0.2,0,0.4,0.2,0.4,0.4S27.9,20,27.7,20H12.5l6.2,6.2c0.2,0.2,0.2,0.4,0,0.6C18.7,26.9,18.6,26.9,18.5,26.9z"/>
</svg>
