<?xml version="1.0" encoding="UTF-8"?>
<svg xmlns="http://www.w3.org/2000/svg" width="12.547" height="7.838" viewBox="0 0 12.547 7.838">
  <path id="arrow-right-long-regular_1_" data-name="arrow-right-long-regular (1)" d="M8.209,103.645a.5.5,0,0,1-.172-.395.584.584,0,0,1,.172-.416l2.33-2.329H.588A.594.594,0,0,1,0,99.9a.583.583,0,0,1,.588-.566h9.951L8.21,97a.588.588,0,1,1,.832-.832L12.375,99.5a.588.588,0,0,1,0,.832l-3.332,3.332A.574.574,0,0,1,8.209,103.645Z" transform="translate(0 -95.997)" fill="#707070"></path>
</svg>
