<?xml version="1.0" encoding="utf-8"?>
<!-- Generator: Adobe Illustrator 26.0.2, SVG Export Plug-In . SVG Version: 6.00 Build 0)  -->
<svg version="1.1" id="Layer_1" xmlns="http://www.w3.org/2000/svg" xmlns:xlink="http://www.w3.org/1999/xlink" x="0px" y="0px"
	 viewBox="0 0 40 40" style="enable-background:new 0 0 40 40;" xml:space="preserve">
<style type="text/css">
	.st0{fill-rule:evenodd;clip-rule:evenodd;}
</style>
<path class="st0" d="M19.6,2c9.7,0,17.6,7.9,17.6,17.6s-7.9,17.6-17.6,17.6S2,29.3,2,19.6S9.9,2,19.6,2z M19.6,36.4
	c9.3,0,16.8-7.6,16.8-16.8S28.8,2.8,19.6,2.8S2.8,10.4,2.8,19.6S10.3,36.4,19.6,36.4z M20.7,12.3c0.1,0,0.2,0,0.3,0.1l6.9,6.9
	c0.2,0.2,0.2,0.4,0,0.6L21,26.8c-0.1,0.1-0.2,0.1-0.3,0.1c-0.1,0-0.2,0-0.3-0.1c-0.2-0.2-0.2-0.4,0-0.6l6.2-6.2H11.5
	c-0.2,0-0.4-0.2-0.4-0.4s0.2-0.4,0.4-0.4h15.2L20.5,13c-0.2-0.2-0.2-0.4,0-0.6C20.5,12.3,20.6,12.3,20.7,12.3z"/>
</svg>
