<svg xmlns="http://www.w3.org/2000/svg" width="20" height="18.75" viewBox="0 0 20 18.75">
  <path id="briefcase-solid" d="M7.188,1.875h5.625a.313.313,0,0,1,.313.312V3.75H6.875V2.188A.313.313,0,0,1,7.188,1.875ZM5,2.188V3.75H2.5A2.5,2.5,0,0,0,0,6.25V10H20V6.25a2.5,2.5,0,0,0-2.5-2.5H15V2.188A2.189,2.189,0,0,0,12.813,0H7.188A2.189,2.189,0,0,0,5,2.188ZM20,11.25H12.5V12.5a1.249,1.249,0,0,1-1.25,1.25H8.75A1.249,1.249,0,0,1,7.5,12.5V11.25H0v5a2.5,2.5,0,0,0,2.5,2.5h15a2.5,2.5,0,0,0,2.5-2.5Z" fill="#e5e5e5"/>
</svg>
