<svg xmlns="http://www.w3.org/2000/svg" width="22.5" height="18" viewBox="0 0 22.5 18">
  <path id="building-user-solid" d="M1.688,0A1.688,1.688,0,0,0,0,1.688V16.313A1.688,1.688,0,0,0,1.688,18H5.063V15.188a1.688,1.688,0,0,1,3.375,0V18H11.6a2.337,2.337,0,0,1-.348-1.234,4.4,4.4,0,0,1,2.25-3.839V1.688A1.688,1.688,0,0,0,11.813,0ZM2.25,8.438a.564.564,0,0,1,.563-.562H3.938a.564.564,0,0,1,.563.563V9.563a.564.564,0,0,1-.562.563H2.813a.564.564,0,0,1-.562-.562Zm3.938-.562H7.313a.564.564,0,0,1,.563.563V9.563a.564.564,0,0,1-.562.563H6.188a.564.564,0,0,1-.562-.562V8.438A.564.564,0,0,1,6.188,7.875ZM9,8.438a.564.564,0,0,1,.563-.562h1.125a.564.564,0,0,1,.563.563V9.563a.564.564,0,0,1-.562.563H9.563A.564.564,0,0,1,9,9.563ZM2.813,3.375H3.938a.564.564,0,0,1,.563.563V5.063a.564.564,0,0,1-.562.563H2.813a.564.564,0,0,1-.562-.562V3.938A.564.564,0,0,1,2.813,3.375Zm2.813.563a.564.564,0,0,1,.563-.562H7.313a.564.564,0,0,1,.563.563V5.063a.564.564,0,0,1-.562.563H6.188a.564.564,0,0,1-.562-.562Zm3.938-.562h1.125a.564.564,0,0,1,.563.563V5.063a.564.564,0,0,1-.562.563H9.563A.564.564,0,0,1,9,5.063V3.938A.564.564,0,0,1,9.563,3.375ZM20.25,9.563a2.812,2.812,0,1,0-2.812,2.813A2.812,2.812,0,0,0,20.25,9.563Zm-7.875,7.211A1.226,1.226,0,0,0,13.6,18h7.671A1.226,1.226,0,0,0,22.5,16.773,3.274,3.274,0,0,0,19.227,13.5H15.648A3.274,3.274,0,0,0,12.375,16.773Z" fill="#e5e5e5"/>
</svg>
