<?xml version="1.0" encoding="iso-8859-1"?>
<!-- Generator: Adobe Illustrator 26.0.3, SVG Export Plug-In . SVG Version: 6.00 Build 0)  -->
<svg version="1.1" id="Layer_1" xmlns="http://www.w3.org/2000/svg" xmlns:xlink="http://www.w3.org/1999/xlink" x="0px" y="0px"
	 viewBox="0 0 448 512" style="enable-background:new 0 0 448 512;" xml:space="preserve">
<path style="fill:#4E5256;" d="M400,32H48C21.49,32,0,53.49,0,80v352c0,26.51,21.49,48,48,48h352c26.51,0,48-21.49,48-48V80
	C448,53.49,426.51,32,400,32z M400,432H48V80h352V432z M364.136,190.276L191.547,361.48c-4.705,4.667-12.303,4.637-16.97-0.068
	l-90.781-91.516c-4.667-4.705-4.637-12.303,0.069-16.971l22.719-22.536c4.705-4.667,12.303-4.637,16.97,0.069l59.792,60.277
	l141.352-140.216c4.705-4.667,12.303-4.637,16.97,0.068l22.536,22.718C368.871,178.011,368.841,185.609,364.136,190.276
	L364.136,190.276z"/>
</svg>
