<svg xmlns="http://www.w3.org/2000/svg" xmlns:xlink="http://www.w3.org/1999/xlink" width="25.248" height="25.831" viewBox="0 0 25.248 25.831">
  <defs>
    <clipPath id="clip-path">
      <path id="Path_2655" data-name="Path 2655" d="M0,0H25.248V25.831H0Z" transform="translate(17.126 2309.243)" fill="#e5e5e5"/>
    </clipPath>
  </defs>
  <g id="Mask_Group_16" data-name="Mask Group 16" transform="translate(-17.126 -2309.243)" clip-path="url(#clip-path)">
    <g id="circle-info-duotone" transform="translate(17.126 2309.243)">
      <path id="Path_2925" data-name="Path 2925" d="M254,167.233a1.578,1.578,0,1,1-1.578,1.578A1.578,1.578,0,0,1,254,167.233Zm-3.156,5.918a1.181,1.181,0,0,1,1.184-1.184H254.4a1.181,1.181,0,0,1,1.184,1.184v4.34h.395a1.183,1.183,0,1,1,0,2.367h-3.945a1.183,1.183,0,1,1,0-2.367h1.183v-3.156h-1.183A1.181,1.181,0,0,1,250.849,173.15Z" transform="translate(-241.381 -160.921)" fill="#e5e5e5"/>
      <path id="Path_2926" data-name="Path 2926" d="M12.624,25.248A12.624,12.624,0,1,0,0,12.624,12.624,12.624,0,0,0,12.624,25.248Zm-1.973-8.679h1.184V13.413H10.652a1.184,1.184,0,0,1,0-2.367h2.367A1.181,1.181,0,0,1,14.2,12.23v4.34H14.6a1.184,1.184,0,0,1,0,2.367H10.652a1.184,1.184,0,0,1,0-2.367ZM12.624,6.312A1.578,1.578,0,1,1,11.046,7.89,1.578,1.578,0,0,1,12.624,6.312Z" fill="#e5e5e5" opacity="0.4"/>
    </g>
  </g>
</svg>
