<?xml version="1.0" encoding="UTF-8"?><svg version="1.1" viewBox="0 0 60.0 60.0" xmlns="http://www.w3.org/2000/svg" xmlns:xlink="http://www.w3.org/1999/xlink"><defs><clipPath id="i0"><path d="M1728,0 L1728,1117 L0,1117 L0,0 L1728,0 Z"></path></clipPath><clipPath id="i1"><path d="M45,0 C53.2842712,-1.52179594e-15 60,6.71572875 60,15 L60,45 C60,53.2842712 53.2842712,60 45,60 L15,60 C6.71572875,60 1.01453063e-15,53.2842712 0,45 L0,15 C-1.01453063e-15,6.71572875 6.71572875,1.52179594e-15 15,0 L45,0 Z"></path></clipPath><clipPath id="i2"><path d="M18.75,0 C29.1053391,0 37.5,8.39466094 37.5,18.75 C37.5,29.1053391 29.1053391,37.5 18.75,37.5 C8.39466094,37.5 0,29.1053391 0,18.75 C0,8.39466094 8.39466094,0 18.75,0 Z M18.75,2.5 C13.3590389,2.5 8.58121534,5.12515422 5.62512598,9.16686613 L21.1141066,9.16646969 C21.5822568,8.18118116 22.5865792,7.5 23.75,7.5 C25.3608305,7.5 26.6666667,8.80583615 26.6666667,10.4166667 C26.6666667,12.0274972 25.3608305,13.3333333 23.75,13.3333333 C22.5865792,13.3333333 21.5822568,12.6521522 21.1141066,11.6668636 L4.1208782,11.6667872 C3.08238944,13.8076404 2.5,16.210808 2.5,18.75 C2.5,21.289192 3.08238944,23.6923596 4.1208782,25.8332128 L21.1141066,25.8331364 C21.5822568,24.8478478 22.5865792,24.1666667 23.75,24.1666667 C25.3608305,24.1666667 26.6666667,25.4725028 26.6666667,27.0833333 C26.6666667,28.6941639 25.3608305,30 23.75,30 C22.5865792,30 21.5822568,29.3188188 21.1141066,28.3335303 L5.62512598,28.3331339 C8.58121534,32.3748458 13.3590389,35 18.75,35 C27.3039838,35 34.3142694,28.3906421 34.952626,20.000157 L18.0525601,20.000197 C17.5844099,20.9854855 16.5800875,21.6666667 15.4166667,21.6666667 C13.8058361,21.6666667 12.5,20.3608305 12.5,18.75 C12.5,17.1391695 13.8058361,15.8333333 15.4166667,15.8333333 C16.5800875,15.8333333 17.5844099,16.5145145 18.0525601,17.499803 L34.9527017,17.5008388 C34.3148241,9.10988087 27.3043222,2.5 18.75,2.5 Z"></path></clipPath></defs><g transform="translate(-101.0 -528.0)"><g clip-path="url(#i0)"><g transform="translate(100.99999999999997 528.0)"><g clip-path="url(#i1)"><polygon points="0,0 60,0 60,60 0,60 0,0" stroke="none" fill="#824C9E"></polygon></g><g transform="translate(11.25 11.25)"><g clip-path="url(#i2)"><polygon points="0,0 37.5,0 37.5,37.5 0,37.5 0,0" stroke="none" fill="#FFFFFF"></polygon></g></g></g></g></g></svg>