<svg xmlns="http://www.w3.org/2000/svg" width="15.75" height="18" viewBox="0 0 15.75 18">
  <path id="lock-keyhole-regular" d="M7.876,1.688A2.812,2.812,0,0,1,10.688,4.5V6.75H5.063V4.5A2.812,2.812,0,0,1,7.874,1.688ZM3.376,4.5V6.75H2.25A2.252,2.252,0,0,0,0,9v6.75A2.252,2.252,0,0,0,2.25,18H13.5a2.252,2.252,0,0,0,2.25-2.25V9A2.252,2.252,0,0,0,13.5,6.75H12.376V4.5a4.5,4.5,0,0,0-9,0M2.25,8.438H13.5A.566.566,0,0,1,14.063,9v6.75a.566.566,0,0,1-.562.563H2.25a.566.566,0,0,1-.562-.562V9a.566.566,0,0,1,.562-.562M8.718,11.25A.847.847,0,1,0,7.031,11.1a.8.8,0,0,0,0,.147V13.5a.847.847,0,0,0,1.688,0Z" fill="#f9f9f9"/>
</svg>
