<?xml version="1.0" encoding="UTF-8"?><svg version="1.1" viewBox="0 0 60.0 60.0" xmlns="http://www.w3.org/2000/svg" xmlns:xlink="http://www.w3.org/1999/xlink"><defs><clipPath id="i0"><path d="M1728,0 L1728,1117 L0,1117 L0,0 L1728,0 Z"></path></clipPath><clipPath id="i1"><path d="M45,0 C53.2842712,-1.52179594e-15 60,6.71572875 60,15 L60,45 C60,53.2842712 53.2842712,60 45,60 L15,60 C6.71572875,60 1.01453063e-15,53.2842712 0,45 L0,15 C-1.01453063e-15,6.71572875 6.71572875,1.52179594e-15 15,0 L45,0 Z"></path></clipPath><clipPath id="i2"><path d="M31.2152512,29.4567143 C33.1612132,29.4567143 34.7404738,31.0343452 34.7404738,32.9819369 C34.7404738,34.9311585 33.1612132,36.5071595 31.2152512,36.5071595 C29.2660296,36.5071595 27.6883988,34.9311585 27.6883988,32.9819369 C27.6883988,31.0343452 29.2660296,29.4567143 31.2152512,29.4567143 Z M13.5826191,29.4567143 C15.5302109,29.4567143 17.1078417,31.0343452 17.1078417,32.9819369 C17.1078417,34.9311585 15.5302109,36.5071595 13.5826191,36.5071595 C11.6333975,36.5071595 10.0573965,34.9311585 10.0573965,32.9819369 C10.0573965,31.0343452 11.6333975,29.4567143 13.5826191,29.4567143 Z M4.57643321,0 C6.60388439,0.0228169747 8.40153604,1.3168654 9.05996874,3.22534235 L9.60920592,4.91053891 L36.2789898,5.28049986 C36.7662952,5.32776359 37.2177453,5.55267377 37.5469617,5.9144858 C37.959297,6.39364227 38.0717521,7.02273886 37.8582504,7.58664409 L35.8845821,15.8887633 C35.3467534,18.1606821 33.4236084,19.8621765 31.1011663,20.1180525 L14.0031033,21.9042957 L13.8890185,22.1650611 C13.7651549,22.5073158 13.809159,22.9424681 14.035699,23.3026503 C14.2492007,23.6465347 14.6207914,23.8600364 15.0249778,23.8681853 L31.2902212,23.8681853 C32.2680916,23.8681853 33.0617963,24.6651497 33.0617963,25.6397604 C33.0617963,26.6143712 32.2680916,27.4113355 31.2902212,27.4113355 L15.0021609,27.4113355 C13.3984535,27.3608122 11.9430565,26.5459203 11.0825306,25.2274251 C10.2138557,23.8958916 10.0410987,22.2172142 10.6131528,20.7390002 L10.9065139,20.0658995 L5.70098411,4.36782087 C5.53474615,3.89029419 5.0735173,3.5545587 4.5568758,3.54315021 L1.77157511,3.54315021 C0.793704763,3.54315021 0,2.74781567 0,1.77157511 C0,0.793704763 0.793704763,0 1.77157511,0 L4.57643321,0 Z"></path></clipPath></defs><g transform="translate(-1209.0 -528.0)"><g clip-path="url(#i0)"><g transform="translate(1209.0 528.0)"><g clip-path="url(#i1)"><polygon points="0,0 60,0 60,60 0,60 0,0" stroke="none" fill="#5EA361"></polygon></g><g transform="translate(9.000000000000057 12.000000000000057)"><g clip-path="url(#i2)"><polygon points="0,0 37.9640675,0 37.9640675,36.5071595 0,36.5071595 0,0" stroke="none" fill="#FFFFFF"></polygon></g></g></g></g></g></svg>