<?xml version="1.0" encoding="utf-8"?>
<!-- Generator: Adobe Illustrator 26.0.2, SVG Export Plug-In . SVG Version: 6.00 Build 0)  -->
<svg version="1.1" id="Base" xmlns="http://www.w3.org/2000/svg" xmlns:xlink="http://www.w3.org/1999/xlink" x="0px" y="0px"
	 viewBox="0 0 331.6 41.3" style="enable-background:new 0 0 331.6 41.3;" xml:space="preserve">
<style type="text/css">
	.Arched_x0020_Green{fill:url(#SVGID_1_);stroke:#FFFFFF;stroke-width:0.25;stroke-miterlimit:1;}
	.st0{fill:url(#SVGID_00000173161784738199155450000011764282472651167646_);}
</style>
<linearGradient id="SVGID_1_" gradientUnits="userSpaceOnUse" x1="6693.292" y1="7825.3403" x2="6693.9995" y2="7824.6333">
	<stop  offset="0" style="stop-color:#019E3E"/>
	<stop  offset="0.9831" style="stop-color:#223A1D"/>
</linearGradient>
<g>
	<g>
		<g>
			
				<linearGradient id="SVGID_00000124120964755699747040000000331813305631943308_" gradientUnits="userSpaceOnUse" x1="169.2076" y1="21.4224" x2="331.5957" y2="21.4224">
				<stop  offset="0" style="stop-color:#F9C716"/>
				<stop  offset="1" style="stop-color:#E76F24"/>
			</linearGradient>
			<path style="fill:url(#SVGID_00000124120964755699747040000000331813305631943308_);" d="M184.2,26l-5.7-1.5
				c-3-0.8-4.6-1.8-4.6-3.8c0-3.5,3.4-4.5,6.1-4.5c3.3,0,5.5,1.7,5.9,4.3h3.7c-0.2-4.8-4-7.5-9.6-7.5c-5.8,0-10,2.8-10,7.9
				c0,3.9,2.7,5.8,6.9,6.9l5.5,1.5c2.5,0.6,4,1.9,4,4c0,2.9-2.6,4.4-6.4,4.4c-3.4,0-6.3-1.5-7.1-4.9h-3.8c0.7,5.4,5.3,8.2,10.9,8.2
				c5.5,0,10.1-2.7,10.1-7.9C190.2,30.4,188.8,27.3,184.2,26z M205,16.4c3.2,0,5.7,1.8,6.7,5.4l3.7-0.1c-0.9-5.6-5.3-8.6-10.6-8.6
				c-7.4,0-12.1,5.8-12.1,14.1c0,8.2,4.7,13.8,12.1,13.8c5.1,0,9.6-2.8,10.6-8.5h-3.6c-0.7,3.3-3.3,5.4-6.7,5.4
				c-5.2,0-8.4-4.3-8.4-10.8C196.6,20.6,199.8,16.4,205,16.4z M232.2,13.2c-4.3,0-7.2,1.9-8.6,4.3V1.8h-4v38.6h4.1V22.3
				c0-3.8,3.5-5.7,7.4-5.7c3.8,0,6.3,2,6.3,5.3v18.6h4.1V21C241.5,16.4,237.4,13.2,232.2,13.2z M257.7,13.1
				c-7.5,0-12.1,5.8-12.1,14.1c0,8.1,4.4,13.8,12.1,13.8c7.6,0,12.1-5.7,12.1-13.9S265.3,13.1,257.7,13.1z M257.7,37.7
				c-5.5,0-8.1-4.6-8.1-10.7c0-6.1,2.6-10.7,8.1-10.7s8,4.5,8,10.7C265.7,33.1,263.2,37.7,257.7,37.7z M304.1,33.4V1.8h-4v31.9
				c0,3.7,1.1,7.1,6.3,7.1c0.6,0,1.5-0.2,2.2-0.4v-2.7h-1.5C305.3,37.6,304.1,36.3,304.1,33.4z M325.6,26l-5.7-1.5
				c-3-0.8-4.6-1.8-4.6-3.8c0-3.5,3.4-4.5,6.1-4.5c3.3,0,5.5,1.7,5.9,4.3h3.7c-0.2-4.8-4-7.5-9.6-7.5c-5.8,0-10,2.8-10,7.9
				c0,3.9,2.7,5.8,6.9,6.9l5.5,1.5c2.5,0.6,4,1.9,4,4c0,2.9-2.6,4.4-6.4,4.4c-3.4,0-6.3-1.5-7.1-4.9h-3.8c0.7,5.4,5.3,8.2,10.9,8.2
				c5.5,0,10.1-2.7,10.1-7.9C331.6,30.4,330.2,27.3,325.6,26z M284,13.1c-7.5,0-12.1,5.8-12.1,14.1c0,8.1,4.4,13.8,12.1,13.8
				c7.6,0,12.1-5.7,12.1-13.9S291.6,13.1,284,13.1z M284,37.7c-5.5,0-8.1-4.6-8.1-10.7c0-6.1,2.6-10.7,8.1-10.7s8,4.5,8,10.7
				C292,33.1,289.5,37.7,284,37.7z"/>
		</g>
	</g>
	<g>
		<g>
			<path d="M34.1,40.5l0-17.8c0-3.4-0.6-4.7-2.3-4.7c-0.9,0-2.3,0.7-3.9,2c-1,0.8-2,1.8-3.8,3.9l0,16.6l-7.1,0l0-17.8
				c0-3.4-0.6-4.7-2.3-4.7c-1.5,0-3.6,1.5-6.7,4.8l-0.9,1l0,16.6l-7.1,0l0-27.6l7.1,0l0,4.6c3.3-3.6,6.1-5.1,9.6-5.1
				c4.1,0,6.6,1.9,7.2,5.4c3-3.6,6.2-5.4,9.8-5.4c5,0,7.5,2.6,7.5,7.8l0,20.3L34.1,40.5z"/>
		</g>
		<g>
			<path d="M47.8,40.5l0-27.6l7.1,0l0,27.6L47.8,40.5z"/>
		</g>
		<g>
			<path d="M95.7,40.5l0-17.8c0-3.4-0.6-4.7-2.3-4.7c-0.9,0-2.3,0.7-3.9,2c-1,0.8-2,1.8-3.8,3.9l0,16.6l-7.1,0l0-17.8
				c0-3.4-0.6-4.7-2.3-4.7c-1.5,0-3.6,1.5-6.7,4.8l-1,1l0,16.6l-7.1,0l0-27.6l7.1,0l0,4.6c3.3-3.6,6.1-5.1,9.6-5.1
				c4.1,0,6.6,1.9,7.2,5.4c3-3.6,6.2-5.4,9.8-5.4c5,0,7.5,2.6,7.5,7.8l0,20.3L95.7,40.5z"/>
		</g>
		<g>
			<path d="M129.5,39.3c-2.9,1.3-5.9,2-9.1,2c-8.2,0-13.4-5.4-13.3-13.8c0-8.7,5.9-15.3,13.8-15.3c6.8,0,11.6,5.2,11.6,12.6l0,3
				l-18.3,0c0.1,2.3,0.3,3.3,1,4.4c1.2,2,3.6,3.3,6.2,3.3c1.1,0,2.1-0.1,3.3-0.5c1.7-0.5,2.7-1,5.3-2.6l2.6,5.4
				C131.1,38.6,130.1,39,129.5,39.3z M120.4,17.5c-3.1,0-5.3,2.1-5.9,5.9l10.8,0C125.1,19.1,123.7,17.5,120.4,17.5z"/>
		</g>
		<g>
			<path d="M149.8,41.3c-7.9,0-13.9-6.3-13.9-14.6c0-8.3,6-14.5,13.9-14.5c7.9,0,13.9,6.3,13.9,14.5C163.7,35,157.7,41.3,149.8,41.3
				z M149.8,17.8c-3.6,0-6.5,4-6.5,8.9c0,4.9,3,9,6.5,9c3.6,0,6.5-4,6.5-9C156.3,21.8,153.4,17.8,149.8,17.8z"/>
		</g>
		<circle cx="51.3" cy="4.1" r="4.1"/>
	</g>
</g>
</svg>
