<?xml version="1.0" encoding="utf-8"?>
<!-- Generator: Adobe Illustrator 26.0.2, SVG Export Plug-In . SVG Version: 6.00 Build 0)  -->
<svg version="1.1" id="Layer_2_00000052104080482931522950000001996873157850224028_"
	 xmlns="http://www.w3.org/2000/svg" xmlns:xlink="http://www.w3.org/1999/xlink" x="0px" y="0px" viewBox="0 0 230.2 57.3"
	 style="enable-background:new 0 0 230.2 57.3;" xml:space="preserve">
<g>
	<path d="M47.9,56.2v-25c0-4.8-0.8-6.6-3.2-6.6c-1.3,0-3.3,1-5.4,2.8c-1.4,1.2-2.8,2.6-5.3,5.4v23.3H24v-25c0-4.8-0.8-6.6-3.3-6.6
		c-2.1,0-5,2.1-9.4,6.8L10,32.8v23.4H0V17.4h10v6.4c4.7-5.1,8.5-7.2,13.4-7.2c5.8,0,9.3,2.7,10.2,7.6c4.3-5.1,8.7-7.6,13.8-7.6
		c7,0,10.5,3.7,10.5,11v28.6L47.9,56.2L47.9,56.2z"/>
	<path d="M67.2,56.2V17.4h9.9v38.8L67.2,56.2L67.2,56.2z"/>
	<path d="M134.7,56.2v-25c0-4.8-0.8-6.6-3.2-6.6c-1.3,0-3.3,1-5.4,2.8c-1.4,1.2-2.8,2.6-5.3,5.4v23.3h-10v-25c0-4.8-0.8-6.6-3.3-6.6
		c-2.1,0-5,2.1-9.4,6.8l-1.3,1.4v23.4h-10V17.4h10v6.4c4.7-5.1,8.5-7.2,13.4-7.2c5.8,0,9.3,2.7,10.2,7.6c4.3-5.1,8.7-7.6,13.8-7.6
		c7,0,10.5,3.7,10.5,11v28.6L134.7,56.2L134.7,56.2z"/>
	<path d="M182.1,54.5c-4.1,1.8-8.3,2.8-12.8,2.8c-11.5,0-18.8-7.6-18.8-19.5c0-12.3,8.3-21.5,19.4-21.5c9.6,0,16.3,7.3,16.3,17.8
		v4.3h-25.7c0.2,3.3,0.4,4.6,1.3,6.2c1.7,2.8,5,4.7,8.7,4.7c1.5,0,3-0.2,4.6-0.7c2.3-0.7,3.8-1.4,7.4-3.7l3.7,7.6
		C184.4,53.4,183,54.1,182.1,54.5z M169.3,23.8c-4.4,0-7.4,3-8.3,8.3h15.2C176,26.1,174,23.8,169.3,23.8z"/>
	<path d="M210.7,57.3c-11.1,0-19.5-8.8-19.5-20.5c0-11.6,8.4-20.5,19.5-20.5c11.1,0,19.5,8.8,19.5,20.5
		C230.2,48.4,221.8,57.3,210.7,57.3z M210.7,24.2c-5,0-9.2,5.7-9.2,12.5c0,6.9,4.2,12.6,9.2,12.6c5,0,9.2-5.7,9.2-12.6
		C219.9,29.9,215.7,24.2,210.7,24.2z"/>
	<circle cx="72.1" cy="5.7" r="5.7"/>
</g>
</svg>
