<?xml version="1.0" encoding="utf-8"?>
<!-- Generator: Adobe Illustrator 26.0.2, SVG Export Plug-In . SVG Version: 6.00 Build 0)  -->
<svg version="1.1" id="Layer_1" xmlns="http://www.w3.org/2000/svg" xmlns:xlink="http://www.w3.org/1999/xlink" x="0px" y="0px"
	 viewBox="0 0 358.5 41.4" style="enable-background:new 0 0 358.5 41.4;" xml:space="preserve">
<style type="text/css">
	.st0{fill:url(#SVGID_1_);}
</style>
<g id="Base">
</g>
<g id="Layer_2_00000038399745460160548370000016926964470254774942_">
	<g>
		<g>
			
				<linearGradient id="SVGID_1_" gradientUnits="userSpaceOnUse" x1="171.4" y1="21.95" x2="358.5" y2="21.95" gradientTransform="matrix(1 0 0 -1 0 43.4)">
				<stop  offset="0" style="stop-color:#88448F"/>
				<stop  offset="0.5098" style="stop-color:#328BC8"/>
				<stop  offset="0.999" style="stop-color:#62A056"/>
				<stop  offset="1" style="stop-color:#5FA056"/>
			</linearGradient>
			<path class="st0" d="M240.1,26.1l-5.7-1.5c-3-0.8-4.6-1.8-4.6-3.8c0-3.5,3.4-4.5,6.2-4.5c3.3,0,5.5,1.7,5.9,4.3h3.8
				c-0.2-4.8-4-7.6-9.6-7.6c-5.8,0-10,2.8-10,7.9c0,3.9,2.7,5.8,6.9,6.9l5.5,1.5c2.5,0.6,4,1.9,4,4c0,2.9-2.6,4.4-6.4,4.4
				c-3.4,0-6.4-1.5-7.1-5h-3.9c0.7,5.4,5.3,8.2,10.9,8.2c5.5,0,10.1-2.7,10.1-7.9C246.2,30.5,244.8,27.3,240.1,26.1z M217,31.1
				c0,4.5-3.4,6.7-7,6.7c-3,0-6.8-1.5-6.8-6.4V13.5h-4.1v18.2c0,6.8,5.7,9.3,10.1,9.3c3.6,0.1,7.1-1.8,8.1-5.6l0.4,5.1h3.3l0.1-27
				H217V31.1z M184.4,13.1c-5.7,0-8,3.6-8.9,5.3V1.8h-4.1v38.7h3.1l0.4-5.1c0.7,1.7,2.9,5.6,9.1,5.6c7.4,0,11.2-5.5,11.2-14.1
				C195.4,19.2,191.9,13.1,184.4,13.1z M183.4,37.9c-4.7,0-7.8-3.5-7.9-7.7v-6.3c0.2-2,1.1-7.5,7.8-7.5c5.1,0,7.8,3.8,7.8,10.6
				C191.1,34.6,188,37.9,183.4,37.9z M352.5,26.1l-5.7-1.5c-3-0.8-4.6-1.8-4.6-3.8c0-3.5,3.4-4.5,6.2-4.5c3.3,0,5.5,1.7,5.9,4.3h3.8
				c-0.2-4.8-4-7.6-9.6-7.6c-5.8,0-10,2.8-10,7.9c0,3.9,2.7,5.8,6.9,6.9l5.5,1.5c2.5,0.6,4,1.9,4,4c0,2.9-2.6,4.4-6.4,4.4
				c-3.4,0-6.4-1.5-7.1-5h-3.9c0.7,5.4,5.3,8.2,10.9,8.2c5.5,0,10.1-2.7,10.1-7.9C358.5,30.5,357.1,27.3,352.5,26.1z M251.2,40.6
				h4.1v-27h-4.1V40.6z M328.7,26.1l-5.7-1.5c-3-0.8-4.6-1.8-4.6-3.8c0-3.5,3.4-4.5,6.2-4.5c3.3,0,5.5,1.7,5.9,4.3h3.8
				c-0.2-4.8-4-7.6-9.6-7.6c-5.8,0-10,2.8-10,7.9c0,3.9,2.7,5.8,6.9,6.9l5.5,1.5c2.5,0.6,4,1.9,4,4c0,2.9-2.6,4.4-6.4,4.4
				c-3.4,0-6.4-1.5-7.1-5h-3.9c0.7,5.4,5.3,8.2,10.9,8.2c5.5,0,10.1-2.7,10.1-7.9C334.8,30.5,333.3,27.3,328.7,26.1z M299.8,13.1
				c-7.7,0-12.1,5.6-12.1,14.2c0,8.7,5.1,13.8,12.4,13.8c5.1,0,9.6-2.6,11-8.2h-3.9c-1,3.2-3.5,5-7.1,5c-5.6,0-8.2-4.3-8.2-9.7h19.4
				v-1.7C311.3,18.2,307.1,13.1,299.8,13.1z M291.8,25.1c0-4.3,2.5-8.8,7.9-8.8c5.2,0,7.6,3.8,7.6,8.8H291.8z M274.3,13.2
				c-4.3,0-7.1,1.9-8.6,4.2v-3.8h-3.9v26.9h4.1V22.3c0-3.8,3.5-5.6,7.5-5.6c3.8,0,6.3,2.3,6.3,6.6v17.3h4.1V22.9
				C283.7,16.5,279.5,13.2,274.3,13.2z M251.1,7.7h4.4V3.2h-4.4V7.7z"/>
		</g>
		<g>
			<g>
				<path d="M34.2,40.6V22.8c0-3.4-0.6-4.7-2.3-4.7c-0.9,0-2.3,0.7-3.9,2c-1,0.8-2,1.8-3.8,3.9v16.6h-7.1V22.8
					c0-3.4-0.6-4.7-2.3-4.7c-1.5,0-3.6,1.5-6.7,4.8l-1,1v16.7H0V12.9h7.1v4.6c3.3-3.6,6.1-5.1,9.6-5.1c4.1,0,6.6,1.9,7.3,5.4
					c3-3.6,6.2-5.4,9.8-5.4c5,0,7.5,2.6,7.5,7.9v20.3L34.2,40.6z"/>
			</g>
			<g>
				<path d="M48,40.6V12.9h7.1v27.7H48z"/>
			</g>
			<g>
				<path d="M96,40.6V22.8c0-3.4-0.6-4.7-2.3-4.7c-0.9,0-2.3,0.7-3.9,2c-1,0.8-2,1.8-3.8,3.9v16.6h-7.1V22.8c0-3.4-0.6-4.7-2.3-4.7
					c-1.5,0-3.6,1.5-6.7,4.8l-1,1v16.7h-7.1V12.9h7.1v4.6c3.3-3.6,6.1-5.1,9.6-5.1c4.1,0,6.6,1.9,7.3,5.4c3-3.6,6.2-5.4,9.8-5.4
					c5,0,7.5,2.6,7.5,7.9v20.3L96,40.6z"/>
			</g>
			<g>
				<path d="M129.8,39.4c-2.9,1.3-5.9,2-9.1,2c-8.2,0-13.4-5.4-13.4-13.9c0-8.7,6-15.3,13.9-15.3c6.8,0,11.6,5.2,11.6,12.7v3h-18.3
					c0.1,2.3,0.3,3.3,1,4.4c1.2,2,3.6,3.3,6.2,3.3c1.1,0,2.1-0.1,3.3-0.5c1.7-0.5,2.7-1,5.3-2.6l2.6,5.4
					C131.5,38.6,130.5,39.1,129.8,39.4z M120.7,17.5c-3.2,0-5.3,2.1-5.9,5.9h10.8C125.5,19.2,124.1,17.5,120.7,17.5z"/>
			</g>
			<g>
				<path d="M150.2,41.4c-7.9,0-13.9-6.3-13.9-14.6s6-14.6,13.9-14.6s13.9,6.3,13.9,14.6C164.1,35.1,158.1,41.4,150.2,41.4z
					 M150.2,17.8c-3.6,0-6.5,4-6.5,8.9s3,9,6.5,9c3.6,0,6.5-4,6.5-9C156.8,21.9,153.8,17.8,150.2,17.8z"/>
			</g>
			<circle cx="51.5" cy="4.1" r="4.1"/>
		</g>
	</g>
</g>
</svg>
