<svg xmlns="http://www.w3.org/2000/svg" width="20.25" height="18" viewBox="0 0 20.25 18">
  <path id="phone-office-solid" d="M4.5,0A1.124,1.124,0,0,0,3.375,1.125V13.5A1.124,1.124,0,0,0,4.5,14.625H6.75A1.124,1.124,0,0,0,7.875,13.5V1.125A1.124,1.124,0,0,0,6.75,0ZM2.25,1.125A2.252,2.252,0,0,0,0,3.375V15.75A2.252,2.252,0,0,0,2.25,18H18a2.252,2.252,0,0,0,2.25-2.25V3.375A2.252,2.252,0,0,0,18,1.125H9V13.5a2.252,2.252,0,0,1-2.25,2.25H4.5A2.252,2.252,0,0,1,2.25,13.5Zm9,3.375a1.124,1.124,0,0,1,1.125-1.125h4.5A1.124,1.124,0,0,1,18,4.5V5.625A1.124,1.124,0,0,1,16.875,6.75h-4.5A1.124,1.124,0,0,1,11.25,5.625Zm1.125,6.75A1.125,1.125,0,1,1,13.5,10.125,1.125,1.125,0,0,1,12.375,11.25ZM18,10.125A1.125,1.125,0,1,1,16.875,9,1.125,1.125,0,0,1,18,10.125ZM16.875,15.75A1.125,1.125,0,1,1,18,14.625,1.125,1.125,0,0,1,16.875,15.75ZM13.5,14.625A1.125,1.125,0,1,1,12.375,13.5,1.125,1.125,0,0,1,13.5,14.625Z" fill="#e5e5e5"/>
</svg>
