<?xml version="1.0" encoding="utf-8"?>
<svg version="1.1" id="Layer_1" xmlns="http://www.w3.org/2000/svg" xmlns:xlink="http://www.w3.org/1999/xlink" x="0px" y="0px"
	 viewBox="0 0 60 66" style="enable-background:new 0 0 60 66;" xml:space="preserve">
<style type="text/css">
	.st0{fill:#FFFFFF;}
	.st1{fill:#00589B;}
	.st2{fill:#398BCB;}
</style>
<path class="st0" d="M34,33.4l10.9,22.5h-8.7l-7.7-16.1L13.3,57.2l-4.5,5.2c-2.1-0.9-3.9-2.3-5.3-4l1-1.2l20.7-23.7l0.2-0.2
	L14.7,11.4h8.7l7.4,15.5L50.3,4.5c2.2,0.8,4.1,2,5.6,3.7L34.2,33.2L34,33.4z"/>
<path class="st1" d="M60,18.4v30.5c0,8.2-6.6,14.8-14.8,14.8H14.8c-2.2,0-4.2-0.5-6-1.3l4.5-5.2l15.2-17.4l7.7,16.1h8.7L34,33.4
	l0.2-0.2L55.9,8.2C58.5,10.9,60,14.5,60,18.4z"/>
<path class="st2" d="M23.5,11.4h-8.7l10.5,21.9l-0.2,0.2L4.4,57.2l-1,1.2C1.3,55.8,0,52.5,0,48.9V18.4C0,10.3,6.6,3.6,14.8,3.6h30.5
	c1.8,0,3.5,0.3,5.1,0.9L30.8,26.9L23.5,11.4z"/>
</svg>
