<?xml version="1.0" encoding="UTF-8"?><svg version="1.1" viewBox="0 0 60.0 60.0" xmlns="http://www.w3.org/2000/svg" xmlns:xlink="http://www.w3.org/1999/xlink"><defs><clipPath id="i0"><path d="M1728,0 L1728,1117 L0,1117 L0,0 L1728,0 Z"></path></clipPath><clipPath id="i1"><path d="M45,0 C53.2842712,-1.52179594e-15 60,6.71572875 60,15 L60,45 C60,53.2842712 53.2842712,60 45,60 L15,60 C6.71572875,60 1.01453063e-15,53.2842712 0,45 L0,15 C-1.01453063e-15,6.71572875 6.71572875,1.52179594e-15 15,0 L45,0 Z"></path></clipPath><clipPath id="i2"><path d="M6.07087794,18.3042253 L9.341,21.1492253 L7.83904235,25.4373442 L14.076,29.2052253 L9.9816363,35.1724521 L0,26.7383387 L6.07087794,18.3042253 Z M14.7227054,12.0082141 L29.9519228,20.6672156 L25.3715707,33.4840828 L10.3736961,24.4234827 L14.7227054,12.0082141 Z M27.003392,-3.39783757e-13 L45,6.87900601 L41.8511881,21.3151606 L24.3531419,13.9039726 L27.003392,-3.39783757e-13 Z"></path></clipPath></defs><g transform="translate(-701.0 -528.0)"><g clip-path="url(#i0)"><g transform="translate(701.0000000000001 528.0)"><g clip-path="url(#i1)"><polygon points="0,0 60,0 60,60 0,60 0,0" stroke="none" fill="#2F8CCA"></polygon></g><g transform="translate(7.5 12.75)"><g clip-path="url(#i2)"><polygon points="0,-3.39783757e-13 45,-3.39783757e-13 45,35.1724521 0,35.1724521 0,-3.39783757e-13" stroke="none" fill="#FFFFFF"></polygon></g></g></g></g></g></svg>