<?xml version="1.0" encoding="utf-8"?>
<!-- Generator: Adobe Illustrator 27.0.0, SVG Export Plug-In . SVG Version: 6.00 Build 0)  -->
<svg version="1.1" id="Layer_1" xmlns="http://www.w3.org/2000/svg" xmlns:xlink="http://www.w3.org/1999/xlink" x="0px" y="0px"
	 viewBox="0 0 60 60" style="enable-background:new 0 0 60 60;" xml:space="preserve">
<style type="text/css">
	.st0{clip-path:url(#SVGID_00000083804330911986054060000011834962967022655649_);}
	.st1{clip-path:url(#SVGID_00000124131552987546082790000001444421009160474496_);}
	.st2{fill:#FFFFFF;}
	.st3{clip-path:url(#SVGID_00000080177814883492960990000001624108591914879385_);}
	.st4{fill:#2F8CCA;}
</style>
<g transform="translate(-701.0 -528.0)">
	<g>
		<defs>
			<rect id="SVGID_1_" width="1728" height="1117"/>
		</defs>
		<clipPath id="SVGID_00000154385415062693721410000011121225150769125537_">
			<use xlink:href="#SVGID_1_"  style="overflow:visible;"/>
		</clipPath>
		<g style="clip-path:url(#SVGID_00000154385415062693721410000011121225150769125537_);">
			<g transform="translate(701.0000000000001 528.0)">
				<g>
					<defs>
						<path id="SVGID_00000061449891142195292140000011154491049555516318_" d="M45,0c8.3,0,15,6.7,15,15v30c0,8.3-6.7,15-15,15H15
							C6.7,60,0,53.3,0,45V15C0,6.7,6.7,0,15,0H45z"/>
					</defs>
					<use xlink:href="#SVGID_00000061449891142195292140000011154491049555516318_"  style="overflow:visible;fill:#FFFFFF;"/>
					<clipPath id="SVGID_00000023962692789092671730000014694779364101892517_">
						<use xlink:href="#SVGID_00000061449891142195292140000011154491049555516318_"  style="overflow:visible;"/>
					</clipPath>
					<g style="clip-path:url(#SVGID_00000023962692789092671730000014694779364101892517_);">
						<polygon class="st2" points="0,0 60,0 60,60 0,60 						"/>
					</g>
				</g>
				<g transform="translate(7.5 12.75)">
					<g>
						<defs>
							<path id="SVGID_00000119828223906474270810000018167182007433712012_" d="M6.1,18.3l3.3,2.8l-1.5,4.3l6.2,3.8l-4.1,6L0,26.7
								L6.1,18.3z M14.7,12L30,20.7l-4.6,12.8l-15-9.1L14.7,12z M27,0l18,6.9l-3.1,14.4l-17.5-7.4L27,0z"/>
						</defs>
						<use xlink:href="#SVGID_00000119828223906474270810000018167182007433712012_"  style="overflow:visible;fill:#2F8CCA;"/>
						<clipPath id="SVGID_00000089543000904484333020000018150428254982877075_">
							<use xlink:href="#SVGID_00000119828223906474270810000018167182007433712012_"  style="overflow:visible;"/>
						</clipPath>
						<g style="clip-path:url(#SVGID_00000089543000904484333020000018150428254982877075_);">
							<polygon class="st4" points="0,0 45,0 45,35.2 0,35.2 							"/>
						</g>
					</g>
				</g>
			</g>
		</g>
	</g>
</g>
</svg>
