<svg xmlns="http://www.w3.org/2000/svg" width="40" height="35" viewBox="0 0 40 35">
  <path id="rectangle-xmark-solid" d="M5,32a5,5,0,0,0-5,5V62a5,5,0,0,0,5,5H35a5,5,0,0,0,5-5V37a5,5,0,0,0-5-5Zm8.672,11.172a1.867,1.867,0,0,1,2.648,0l3.672,3.672,3.672-3.672a1.873,1.873,0,0,1,2.648,2.648l-3.672,3.672,3.672,3.672a1.873,1.873,0,0,1-2.648,2.648l-3.672-3.672L16.32,55.813a1.873,1.873,0,0,1-2.648-2.648l3.672-3.672L13.672,45.82A1.867,1.867,0,0,1,13.672,43.172Z" transform="translate(0 -32)" fill="#841a1a"/>
</svg>
