<svg xmlns="http://www.w3.org/2000/svg" xmlns:xlink="http://www.w3.org/1999/xlink" width="678.821" height="678.821" viewBox="0 0 678.821 678.821">
  <defs>
    <clipPath id="clip-path">
      <circle id="Ellipse_1" data-name="Ellipse 1" cx="240" cy="240" r="240" transform="translate(-21.84 240) rotate(-45)" fill="none"/>
    </clipPath>
  </defs>
  <g id="Group_2" data-name="Group 2" transform="translate(21.84 99.411)">
    <g id="Group_1" data-name="Group 1" clip-path="url(#clip-path)">
      <rect id="Rectangle_1" data-name="Rectangle 1" width="640" height="480" fill="#039"/>
      <path id="Path_1" data-name="Path 1" d="M320,76.374l-7.111,23.7,11.852,2.37Z" fill="#fc0"/>
      <path id="Path_2" data-name="Path 2" d="M320,76.374l7.111,23.7-11.852,2.37Z" fill="#fc0"/>
      <path id="Path_3" data-name="Path 3" d="M342.543,92.753l-24.741.562,1.408,12Z" fill="#fc0"/>
      <path id="Path_4" data-name="Path 4" d="M342.543,92.753,322.2,106.841,316.28,96.3Z" fill="#fc0"/>
      <path id="Path_5" data-name="Path 5" d="M333.933,119.254,325.753,95.9l-10.981,5.049Z" fill="#fc0"/>
      <path id="Path_6" data-name="Path 6" d="M333.933,119.254l-19.686-15,8.195-8.884Z" fill="#fc0"/>
      <path id="Path_7" data-name="Path 7" d="M297.457,92.753l24.741.562-1.408,12Z" fill="#fc0"/>
      <path id="Path_8" data-name="Path 8" d="M297.457,92.753,317.8,106.841,323.72,96.3Z" fill="#fc0"/>
      <path id="Path_9" data-name="Path 9" d="M306.067,119.254l8.18-23.357,10.981,5.049Z" fill="#fc0"/>
      <path id="Path_10" data-name="Path 10" d="M306.067,119.254l19.686-15-8.195-8.884Z" fill="#fc0"/>
      <path id="Path_11" data-name="Path 11" d="M320,360.818l-7.111,23.7,11.852,2.37Z" fill="#fc0"/>
      <path id="Path_12" data-name="Path 12" d="M320,360.818l7.111,23.7-11.852,2.37Z" fill="#fc0"/>
      <path id="Path_13" data-name="Path 13" d="M342.543,377.2l-24.741.562,1.408,12Z" fill="#fc0"/>
      <path id="Path_14" data-name="Path 14" d="M342.543,377.2,322.2,391.285l-5.917-10.539Z" fill="#fc0"/>
      <path id="Path_15" data-name="Path 15" d="M333.933,403.7l-8.18-23.356-10.981,5.048Z" fill="#fc0"/>
      <path id="Path_16" data-name="Path 16" d="M333.933,403.7l-19.686-15,8.195-8.884Z" fill="#fc0"/>
      <path id="Path_17" data-name="Path 17" d="M297.457,377.2l24.741.562-1.408,12Z" fill="#fc0"/>
      <path id="Path_18" data-name="Path 18" d="M297.457,377.2,317.8,391.285l5.917-10.539Z" fill="#fc0"/>
      <path id="Path_19" data-name="Path 19" d="M306.067,403.7l8.18-23.356,10.981,5.048Z" fill="#fc0"/>
      <path id="Path_20" data-name="Path 20" d="M306.067,403.7l19.686-15-8.195-8.884Z" fill="#fc0"/>
      <path id="Path_21" data-name="Path 21" d="M177.778,218.6l-7.111,23.7,11.852,2.37Z" fill="#fc0"/>
      <path id="Path_22" data-name="Path 22" d="M177.778,218.6l7.111,23.7-11.852,2.37Z" fill="#fc0"/>
      <path id="Path_23" data-name="Path 23" d="M200.321,234.975l-24.741.562,1.408,12Z" fill="#fc0"/>
      <path id="Path_24" data-name="Path 24" d="M200.321,234.975l-20.346,14.088-5.917-10.539Z" fill="#fc0"/>
      <path id="Path_25" data-name="Path 25" d="M191.71,261.477l-8.18-23.357-10.981,5.049Z" fill="#fc0"/>
      <path id="Path_26" data-name="Path 26" d="M191.71,261.477l-19.686-15,8.195-8.884Z" fill="#fc0"/>
      <path id="Path_27" data-name="Path 27" d="M155.234,234.975l24.741.562-1.408,12Z" fill="#fc0"/>
      <path id="Path_28" data-name="Path 28" d="M155.234,234.975l20.346,14.088,5.917-10.539Z" fill="#fc0"/>
      <path id="Path_29" data-name="Path 29" d="M163.845,261.477l8.18-23.357,10.981,5.049Z" fill="#fc0"/>
      <path id="Path_30" data-name="Path 30" d="M163.845,261.477l19.686-15-8.195-8.884Z" fill="#fc0"/>
      <path id="Path_31" data-name="Path 31" d="M236.7,139.383l19.686-15-8.195-8.884Z" fill="#fc0"/>
      <path id="Path_32" data-name="Path 32" d="M236.7,139.383l8.18-23.357,10.981,5.049Z" fill="#fc0"/>
      <path id="Path_33" data-name="Path 33" d="M228.09,112.881l20.346,14.088,5.917-10.539Z" fill="#fc0"/>
      <path id="Path_34" data-name="Path 34" d="M228.09,112.881l24.741.562-1.408,12Z" fill="#fc0"/>
      <path id="Path_35" data-name="Path 35" d="M250.634,96.5l-7.111,23.7,11.852,2.37Z" fill="#fc0"/>
      <path id="Path_36" data-name="Path 36" d="M250.634,96.5l7.111,23.7-11.852,2.37Z" fill="#fc0"/>
      <path id="Path_37" data-name="Path 37" d="M264.566,139.383l-19.686-15,8.195-8.884Z" fill="#fc0"/>
      <path id="Path_38" data-name="Path 38" d="M264.566,139.383l-8.18-23.357-10.981,5.049Z" fill="#fc0"/>
      <path id="Path_39" data-name="Path 39" d="M273.177,112.881l-20.346,14.088-5.917-10.539Z" fill="#fc0"/>
      <path id="Path_40" data-name="Path 40" d="M273.177,112.881l-24.741.562,1.408,12Z" fill="#fc0"/>
      <path id="Path_41" data-name="Path 41" d="M211.839,192.11l-8.18-23.356L192.678,173.8Z" fill="#fc0"/>
      <path id="Path_42" data-name="Path 42" d="M211.839,192.11l-19.686-15,8.195-8.884Z" fill="#fc0"/>
      <path id="Path_43" data-name="Path 43" d="M183.973,192.11l19.686-15-8.195-8.884Z" fill="#fc0"/>
      <path id="Path_44" data-name="Path 44" d="M183.973,192.11l8.18-23.356,10.981,5.048Z" fill="#fc0"/>
      <path id="Path_45" data-name="Path 45" d="M175.362,165.609,195.708,179.7l5.917-10.539Z" fill="#fc0"/>
      <path id="Path_46" data-name="Path 46" d="M175.362,165.609l24.741.562-1.408,12Z" fill="#fc0"/>
      <path id="Path_47" data-name="Path 47" d="M220.45,165.609,200.1,179.7l-5.917-10.539Z" fill="#fc0"/>
      <path id="Path_48" data-name="Path 48" d="M220.45,165.609l-24.741.562,1.408,12Z" fill="#fc0"/>
      <path id="Path_49" data-name="Path 49" d="M197.906,149.23l7.111,23.7-11.852,2.37Z" fill="#fc0"/>
      <path id="Path_50" data-name="Path 50" d="M197.906,149.23l-7.111,23.7,11.852,2.37Z" fill="#fc0"/>
      <path id="Path_51" data-name="Path 51" d="M220.476,308.172l-24.741.562,1.408,12Z" fill="#fc0"/>
      <path id="Path_52" data-name="Path 52" d="M220.476,308.172,200.13,322.26l-5.917-10.539Z" fill="#fc0"/>
      <path id="Path_53" data-name="Path 53" d="M211.865,334.674l-8.18-23.357L192.7,316.366Z" fill="#fc0"/>
      <path id="Path_54" data-name="Path 54" d="M211.865,334.674l-19.686-15,8.195-8.884Z" fill="#fc0"/>
      <path id="Path_55" data-name="Path 55" d="M184,334.674l19.686-15-8.195-8.884Z" fill="#fc0"/>
      <path id="Path_56" data-name="Path 56" d="M184,334.674l8.18-23.357,10.981,5.049Z" fill="#fc0"/>
      <path id="Path_57" data-name="Path 57" d="M197.932,291.793l7.111,23.7-11.852,2.37Z" fill="#fc0"/>
      <path id="Path_58" data-name="Path 58" d="M197.932,291.793l-7.111,23.7,11.852,2.37Z" fill="#fc0"/>
      <path id="Path_59" data-name="Path 59" d="M175.389,308.172l24.741.562-1.408,12Z" fill="#fc0"/>
      <path id="Path_60" data-name="Path 60" d="M175.389,308.172l20.346,14.088,5.917-10.539Z" fill="#fc0"/>
      <path id="Path_61" data-name="Path 61" d="M271.921,355.882l-24.741.562,1.408,12Z" fill="#fc0"/>
      <path id="Path_62" data-name="Path 62" d="M271.921,355.882,251.575,369.97l-5.917-10.539Z" fill="#fc0"/>
      <path id="Path_63" data-name="Path 63" d="M263.31,382.384l-8.18-23.357-10.981,5.049Z" fill="#fc0"/>
      <path id="Path_64" data-name="Path 64" d="M263.31,382.384l-19.686-15,8.195-8.884Z" fill="#fc0"/>
      <path id="Path_65" data-name="Path 65" d="M235.445,382.384l19.686-15-8.195-8.884Z" fill="#fc0"/>
      <path id="Path_66" data-name="Path 66" d="M235.445,382.384l8.18-23.356,10.981,5.048Z" fill="#fc0"/>
      <path id="Path_67" data-name="Path 67" d="M249.378,339.5l7.111,23.7-11.852,2.37Z" fill="#fc0"/>
      <path id="Path_68" data-name="Path 68" d="M249.378,339.5l-7.111,23.7,11.852,2.37Z" fill="#fc0"/>
      <path id="Path_69" data-name="Path 69" d="M226.834,355.882l24.741.562-1.408,12Z" fill="#fc0"/>
      <path id="Path_70" data-name="Path 70" d="M226.834,355.882,247.18,369.97l5.917-10.539Z" fill="#fc0"/>
      <path id="Path_71" data-name="Path 71" d="M462.222,218.6l7.111,23.7-11.852,2.37Z" fill="#fc0"/>
      <path id="Path_72" data-name="Path 72" d="M462.222,218.6l-7.111,23.7,11.852,2.37Z" fill="#fc0"/>
      <path id="Path_73" data-name="Path 73" d="M439.679,234.975l24.741.562-1.408,12Z" fill="#fc0"/>
      <path id="Path_74" data-name="Path 74" d="M439.679,234.975l20.346,14.088,5.917-10.539Z" fill="#fc0"/>
      <path id="Path_75" data-name="Path 75" d="M448.289,261.477l8.18-23.357,10.981,5.049Z" fill="#fc0"/>
      <path id="Path_76" data-name="Path 76" d="M448.289,261.477l19.686-15L459.78,237.6Z" fill="#fc0"/>
      <path id="Path_77" data-name="Path 77" d="M484.766,234.975l-24.741.562,1.408,12Z" fill="#fc0"/>
      <path id="Path_78" data-name="Path 78" d="M484.766,234.975,464.42,249.063,458.5,238.524Z" fill="#fc0"/>
      <path id="Path_79" data-name="Path 79" d="M476.155,261.477l-8.18-23.357-10.981,5.049Z" fill="#fc0"/>
      <path id="Path_80" data-name="Path 80" d="M476.155,261.477l-19.686-15,8.195-8.884Z" fill="#fc0"/>
      <path id="Path_81" data-name="Path 81" d="M403.3,139.383l-19.686-15,8.195-8.884Z" fill="#fc0"/>
      <path id="Path_82" data-name="Path 82" d="M403.3,139.383l-8.18-23.357-10.981,5.049Z" fill="#fc0"/>
      <path id="Path_83" data-name="Path 83" d="M411.91,112.881l-20.346,14.088-5.917-10.539Z" fill="#fc0"/>
      <path id="Path_84" data-name="Path 84" d="M411.91,112.881l-24.741.562,1.408,12Z" fill="#fc0"/>
      <path id="Path_85" data-name="Path 85" d="M389.366,96.5l7.111,23.7-11.852,2.37Z" fill="#fc0"/>
      <path id="Path_86" data-name="Path 86" d="M389.366,96.5l-7.111,23.7,11.852,2.37Z" fill="#fc0"/>
      <path id="Path_87" data-name="Path 87" d="M375.434,139.383l19.686-15-8.195-8.884Z" fill="#fc0"/>
      <path id="Path_88" data-name="Path 88" d="M375.434,139.383l8.18-23.357,10.981,5.049Z" fill="#fc0"/>
      <path id="Path_89" data-name="Path 89" d="M366.823,112.881l20.346,14.088,5.917-10.539Z" fill="#fc0"/>
      <path id="Path_90" data-name="Path 90" d="M366.823,112.881l24.741.562-1.408,12Z" fill="#fc0"/>
      <path id="Path_91" data-name="Path 91" d="M428.161,192.11l8.18-23.356,10.981,5.048Z" fill="#fc0"/>
      <path id="Path_92" data-name="Path 92" d="M428.161,192.11l19.686-15-8.195-8.884Z" fill="#fc0"/>
      <path id="Path_93" data-name="Path 93" d="M456.027,192.11l-19.686-15,8.195-8.884Z" fill="#fc0"/>
      <path id="Path_94" data-name="Path 94" d="M456.027,192.11l-8.18-23.356L436.866,173.8Z" fill="#fc0"/>
      <path id="Path_95" data-name="Path 95" d="M464.638,165.609,444.292,179.7l-5.917-10.539Z" fill="#fc0"/>
      <path id="Path_96" data-name="Path 96" d="M464.638,165.609l-24.741.562,1.408,12Z" fill="#fc0"/>
      <path id="Path_97" data-name="Path 97" d="M419.55,165.609,439.9,179.7l5.917-10.539Z" fill="#fc0"/>
      <path id="Path_98" data-name="Path 98" d="M419.55,165.609l24.741.562-1.408,12Z" fill="#fc0"/>
      <path id="Path_99" data-name="Path 99" d="M442.094,149.23l-7.111,23.7,11.852,2.37Z" fill="#fc0"/>
      <path id="Path_100" data-name="Path 100" d="M442.094,149.23l7.111,23.7-11.852,2.37Z" fill="#fc0"/>
      <path id="Path_101" data-name="Path 101" d="M419.524,308.172l24.741.562-1.408,12Z" fill="#fc0"/>
      <path id="Path_102" data-name="Path 102" d="M419.524,308.172,439.87,322.26l5.917-10.539Z" fill="#fc0"/>
      <path id="Path_103" data-name="Path 103" d="M428.135,334.674l8.18-23.357,10.981,5.049Z" fill="#fc0"/>
      <path id="Path_104" data-name="Path 104" d="M428.135,334.674l19.686-15-8.195-8.884Z" fill="#fc0"/>
      <path id="Path_105" data-name="Path 105" d="M456,334.674l-19.686-15,8.195-8.884Z" fill="#fc0"/>
      <path id="Path_106" data-name="Path 106" d="M456,334.674l-8.18-23.357-10.981,5.049Z" fill="#fc0"/>
      <path id="Path_107" data-name="Path 107" d="M442.068,291.793l-7.111,23.7,11.852,2.37Z" fill="#fc0"/>
      <path id="Path_108" data-name="Path 108" d="M442.068,291.793l7.111,23.7-11.852,2.37Z" fill="#fc0"/>
      <path id="Path_109" data-name="Path 109" d="M464.611,308.172l-24.741.562,1.408,12Z" fill="#fc0"/>
      <path id="Path_110" data-name="Path 110" d="M464.611,308.172,444.265,322.26l-5.917-10.539Z" fill="#fc0"/>
      <path id="Path_111" data-name="Path 111" d="M368.079,355.882l24.741.562-1.408,12Z" fill="#fc0"/>
      <path id="Path_112" data-name="Path 112" d="M368.079,355.882l20.346,14.088,5.917-10.539Z" fill="#fc0"/>
      <path id="Path_113" data-name="Path 113" d="M376.69,382.384l8.18-23.357,10.981,5.049Z" fill="#fc0"/>
      <path id="Path_114" data-name="Path 114" d="M376.69,382.384l19.686-15-8.195-8.884Z" fill="#fc0"/>
      <path id="Path_115" data-name="Path 115" d="M404.555,382.384l-19.686-15,8.195-8.884Z" fill="#fc0"/>
      <path id="Path_116" data-name="Path 116" d="M404.555,382.384l-8.18-23.356-10.981,5.048Z" fill="#fc0"/>
      <path id="Path_117" data-name="Path 117" d="M390.622,339.5l-7.111,23.7,11.852,2.37Z" fill="#fc0"/>
      <path id="Path_118" data-name="Path 118" d="M390.622,339.5l7.111,23.7-11.852,2.37Z" fill="#fc0"/>
      <path id="Path_119" data-name="Path 119" d="M413.166,355.882l-24.741.562,1.408,12Z" fill="#fc0"/>
      <path id="Path_120" data-name="Path 120" d="M413.166,355.882,392.82,369.97,386.9,359.431Z" fill="#fc0"/>
    </g>
  </g>
</svg>
