<svg xmlns="http://www.w3.org/2000/svg" xmlns:xlink="http://www.w3.org/1999/xlink" width="480" height="480" viewBox="0 0 480 480">
  <defs>
    <clipPath id="clip-path">
      <circle id="Ellipse_1" data-name="Ellipse 1" cx="240" cy="240" r="240" transform="translate(81.6)" fill="none"/>
    </clipPath>
  </defs>
  <g id="Group_2" data-name="Group 2" transform="translate(-81.6)">
    <g id="Group_1" data-name="Group 1" clip-path="url(#clip-path)">
      <rect id="Rectangle_1" data-name="Rectangle 1" width="640" height="480" fill="#012169"/>
      <path id="Path_1" data-name="Path 1" d="M75,0,319,181,562,0h78V62L400,241,640,419v61H560L320,301,81,480H0V420L239,242,0,64V0Z" fill="#fff"/>
      <path id="Path_2" data-name="Path 2" d="M424,281,640,440v40L369,281ZM240,301l6,35L54,480H0ZM640,0V3L391,191l2-44L590,0ZM0,0,239,176H179L0,42Z" fill="#c8102e"/>
      <path id="Path_3" data-name="Path 3" d="M241,480H401V0H241ZM0,320H640V160H0Z" fill="#fff"/>
      <path id="Path_4" data-name="Path 4" d="M0,289H640V193H0ZM273,480h96V0H273Z" fill="#c8102e"/>
    </g>
  </g>
</svg>
