<svg id="Group_2" data-name="Group 2" xmlns="http://www.w3.org/2000/svg" xmlns:xlink="http://www.w3.org/1999/xlink" width="480" height="480" viewBox="0 0 480 480">
  <defs>
    <clipPath id="clip-path">
      <circle id="Ellipse_1" data-name="Ellipse 1" cx="240" cy="240" r="240" fill="none"/>
    </clipPath>
  </defs>
  <g id="Group_1" data-name="Group 1" clip-path="url(#clip-path)">
    <path id="Path_1" data-name="Path 1" d="M0,0H912V36.938H0ZM0,73.875H912v36.938H0Zm0,73.781H912v37.031H0Zm0,73.875H912v36.938H0Zm0,73.875H912v36.938H0Zm0,73.781H912v36.938H0Zm0,73.875H912V480H0Z" fill="#bd3d44" fill-rule="evenodd"/>
    <path id="Path_2" data-name="Path 2" d="M0,36.938H912V73.876H0Zm0,73.875H912v36.844H0Zm0,73.781H912v36.938H0Zm0,73.875H912v36.937H0Zm0,73.875H912v36.937H0Zm0,73.781H912v36.937H0Z" fill="#fff" fill-rule="evenodd"/>
    <rect id="Rectangle_1" data-name="Rectangle 1" width="364.781" height="258.469" fill="#192f5d"/>
    <path id="Path_3" data-name="Path 3" d="M30.375,11.063,33.75,21.281H44.437l-8.625,6.282,3.282,10.312L30.375,31.5,21.75,37.781l3.281-10.218-8.719-6.282H27.187Zm60.844,0L94.5,21.281h10.781l-8.719,6.282,3.282,10.312L91.219,31.5,82.5,37.781l3.281-10.218-8.625-6.282H87.844Zm60.75,0,3.375,10.218h10.593l-8.625,6.282,3.282,10.312L151.875,31.5l-8.625,6.281,3.281-10.218-8.719-6.282h10.782Zm60.843,0,3.282,10.218h10.781l-8.719,6.282,3.375,10.312L212.812,31.5l-8.718,6.281,3.375-10.218-8.719-6.282h10.687Zm60.75,0,3.375,10.218h10.688L279,27.563l3.281,10.312L273.562,31.5l-8.625,6.281,3.281-10.218-8.625-6.282h10.688Zm60.844,0,3.281,10.218h10.782l-8.719,6.282,3.375,10.312L334.406,31.5l-8.719,6.281,3.375-10.218-8.718-6.282h10.781ZM60.844,36.938l3.281,10.218H74.906l-8.719,6.282,3.188,10.218-8.438-6.281-8.718,6.281,3.093-10.218-8.437-6.282H57.562Zm60.75,0,3.375,10.218h10.687l-8.719,6.282,3.375,10.218-8.718-6.281-8.719,6.281,3.375-10.218-8.719-6.282h10.781Zm60.843,0,3.282,10.218H196.5l-8.719,6.282,3.281,10.218-8.625-6.281-8.718,6.281L177,53.438l-8.625-6.282h10.687Zm60.75,0,3.375,10.218H257.25l-8.719,6.282,3.375,10.218-8.719-6.281-8.625,6.281,3.282-10.218-8.719-6.282H240Zm60.844,0,3.281,10.218h10.782l-8.719,6.282,3.281,10.218-8.625-6.281-8.719,6.281,3.282-10.218-8.625-6.282h10.687ZM30.375,62.719,33.75,73.125H44.437l-8.625,6.281,3.282,10.219L30.375,83.25,21.75,89.625l3.281-10.312-8.719-6.282H27.187Zm60.844,0L94.5,73.031h10.781l-8.719,6.282,3.282,10.218-8.625-6.375L82.5,89.531l3.281-10.312-8.625-6.281H87.844Zm60.75,0,3.375,10.312h10.593l-8.625,6.282,3.282,10.218-8.719-6.375-8.625,6.375,3.281-10.312-8.719-6.281h10.782Zm60.843,0,3.282,10.312h10.781l-8.719,6.282,3.375,10.218-8.719-6.375-8.718,6.375,3.375-10.312-8.719-6.281h10.687Zm60.75,0,3.375,10.312h10.688L279,79.313l3.281,10.218-8.719-6.375-8.625,6.375,3.281-10.312-8.625-6.281h10.688Zm60.844,0,3.281,10.312h10.782l-8.719,6.282,3.375,10.218-8.719-6.375-8.719,6.375,3.375-10.312-8.718-6.281h10.781ZM60.844,88.594l3.281,10.218H74.906l-8.719,6.282,3.282,10.312-8.625-6.375-8.719,6.281,3.281-10.218-8.625-6.282H57.469Zm60.75,0,3.375,10.218h10.687l-8.719,6.282,3.375,10.312-8.718-6.375-8.719,6.281,3.375-10.218-8.719-6.282h10.781Zm60.843,0,3.282,10.218H196.5l-8.719,6.282,3.281,10.312-8.625-6.375-8.718,6.281L177,105.094l-8.625-6.282h10.687Zm60.75,0,3.375,10.218H257.25l-8.625,6.282,3.281,10.312-8.719-6.375-8.625,6.281,3.282-10.218-8.719-6.282H240Zm60.844,0,3.281,10.218h10.782l-8.719,6.282,3.281,10.312-8.625-6.375-8.719,6.281,3.282-10.218-8.625-6.282h10.687ZM30.375,114.469l3.375,10.218H44.437l-8.625,6.282,3.282,10.312-8.719-6.375-8.625,6.281,3.281-10.218-8.719-6.282H27.187Zm60.844,0L94.5,124.687h10.781l-8.719,6.282,3.282,10.218-8.625-6.281L82.5,141.187l3.281-10.218-8.625-6.282H87.844Zm60.75,0,3.375,10.218h10.593l-8.625,6.282,3.282,10.312-8.719-6.375-8.625,6.281,3.281-10.218-8.719-6.282h10.782Zm60.843,0,3.282,10.218h10.781l-8.719,6.282,3.375,10.312-8.719-6.375-8.718,6.281,3.375-10.218-8.719-6.282h10.687Zm60.75,0,3.375,10.218h10.688L279,130.969l3.281,10.312-8.719-6.375-8.625,6.281,3.281-10.218-8.625-6.282h10.688Zm60.844,0,3.281,10.218h10.782l-8.719,6.282,3.375,10.312-8.719-6.375-8.719,6.281,3.375-10.218-8.718-6.282h10.781ZM60.844,140.344l3.281,10.218H74.906l-8.719,6.282,3.282,10.218-8.625-6.375-8.719,6.375,3.281-10.312-8.625-6.281H57.469Zm60.75,0,3.375,10.218h10.687l-8.719,6.282,3.375,10.218-8.718-6.375-8.719,6.375,3.375-10.312-8.719-6.281h10.781Zm60.843,0,3.282,10.218H196.5l-8.719,6.282,3.281,10.218-8.625-6.375-8.718,6.375L177,156.75l-8.625-6.281h10.687Zm60.75,0,3.375,10.218H257.25l-8.625,6.282,3.281,10.218-8.719-6.375-8.625,6.375,3.282-10.312-8.719-6.281H240Zm60.844,0,3.281,10.218h10.782l-8.719,6.282,3.281,10.218-8.625-6.375-8.719,6.375,3.282-10.312-8.625-6.281h10.687ZM30.375,166.125l3.375,10.312H44.437l-8.625,6.282,3.282,10.125-8.719-6.281-8.625,6.281,3.281-10.219-8.719-6.281H27.187Zm60.844,0L94.5,176.437h10.781l-8.719,6.282,3.375,10.125-8.718-6.281L82.5,192.844l3.375-10.219-8.719-6.281H87.844Zm60.75,0,3.375,10.312h10.593l-8.625,6.282,3.282,10.125-8.719-6.281-8.625,6.281,3.281-10.219-8.719-6.281h10.782Zm60.843,0,3.282,10.312h10.781l-8.719,6.282,3.375,10.125-8.719-6.281-8.718,6.281,3.375-10.219-8.719-6.281h10.687Zm60.75,0,3.375,10.312h10.688L279,182.719l3.281,10.125-8.719-6.281-8.625,6.281,3.281-10.219-8.625-6.281h10.688Zm60.844,0,3.281,10.312h10.782l-8.719,6.282,3.375,10.125-8.719-6.281-8.719,6.281,3.375-10.219-8.718-6.281h10.781ZM60.844,192l3.281,10.219H74.906L66.187,208.5l3.282,10.312-8.625-6.374-8.719,6.281L55.406,208.5l-8.625-6.281H57.469Zm60.75,0,3.375,10.219h10.687l-8.719,6.281,3.375,10.312-8.718-6.374-8.719,6.281L116.25,208.5l-8.719-6.281h10.781Zm60.843,0,3.282,10.219H196.5l-8.719,6.281,3.281,10.312-8.625-6.374-8.718,6.281L177,208.5l-8.625-6.281h10.687Zm60.75,0,3.375,10.219H257.25l-8.625,6.281,3.281,10.312-8.719-6.374-8.625,6.281,3.282-10.219-8.719-6.281H240Zm60.844,0,3.281,10.219h10.782l-8.719,6.281,3.281,10.312-8.625-6.374-8.719,6.281,3.282-10.219-8.625-6.281h10.687ZM30.375,217.875l3.375,10.219H44.437l-8.625,6.281,3.282,10.219-8.719-6.282-8.625,6.282,3.281-10.313L16.312,228H27.187Zm60.844,0L94.5,228.094h10.781l-8.719,6.281,3.375,10.219-8.718-6.282L82.5,244.594l3.375-10.313L77.156,228H87.844Zm60.75,0,3.375,10.219h10.593l-8.437,6.281,3.281,10.219-8.719-6.282-8.625,6.282,3.282-10.313L138,228h10.781Zm60.843,0,3.282,10.219h10.781l-8.719,6.281,3.375,10.219-8.719-6.282-8.718,6.282,3.375-10.313L198.75,228h10.687Zm60.75,0,3.375,10.219h10.688L279,234.375l3.281,10.219-8.719-6.282-8.625,6.282,3.281-10.313L259.593,228h10.688Zm60.844,0,3.281,10.219h10.782l-8.719,6.281,3.375,10.219-8.719-6.282-8.719,6.282,3.375-10.313L320.344,228h10.781Z" fill="#fff" fill-rule="evenodd"/>
  </g>
</svg>
